<?xml version="1.0" standalone="no"?>
<!DOCTYPE svg PUBLIC "-//W3C//DTD SVG 20010904//EN"
 "http://www.w3.org/TR/2001/REC-SVG-20010904/DTD/svg10.dtd">
<svg version="1.0" xmlns="http://www.w3.org/2000/svg"
 width="500.000000pt" height="500.000000pt" viewBox="0 0 500.000000 500.000000"
 preserveAspectRatio="xMidYMid meet">
<metadata>
Created by potrace 1.14, written by Peter Selinger 2001-2017
</metadata>
<g transform="translate(0.000000,500.000000) scale(0.100000,-0.100000)"
fill="#000000" stroke="none">
<path d="M0 3570 l0 -1430 68 34 c153 77 355 133 611 170 l154 22 93 179 c52
98 93 179 91 180 -1 1 -81 7 -177 14 -134 10 -190 10 -239 1 -129 -23 -224
-85 -283 -185 l-30 -50 5 37 c7 49 58 121 115 163 26 19 83 47 127 62 76 26
90 27 299 30 120 1 223 6 228 11 12 12 322 656 463 962 80 173 130 296 156
384 44 151 65 181 129 181 33 0 47 -7 86 -45 25 -25 57 -67 70 -95 38 -81 33
-136 -37 -379 -105 -366 -266 -1033 -313 -1293 l-5 -32 52 15 c103 30 254 96
355 155 103 60 132 67 132 31 0 -40 -241 -168 -426 -227 -65 -21 -120 -39
-122 -40 -3 -3 -40 -226 -63 -390 -28 -198 -36 -535 -15 -633 8 -40 25 -89 36
-107 40 -65 132 -68 242 -8 121 66 400 434 572 755 51 94 68 113 91 104 27
-10 16 -41 -76 -201 -304 -532 -602 -828 -855 -852 -187 -17 -279 125 -306
474 -13 170 -2 417 30 661 l18 133 -35 -5 c-20 -3 -110 -15 -201 -26 -127 -16
-168 -25 -178 -38 -7 -9 -63 -102 -124 -207 -125 -215 -236 -381 -334 -503
l-67 -84 51 -101 c119 -239 335 -520 532 -693 340 -299 756 -491 1210 -560
159 -24 491 -24 650 0 695 105 1282 491 1648 1082 67 108 144 261 186 370 21
54 41 90 50 92 9 2 16 0 16 -5 0 -18 -64 -174 -115 -278 -254 -524 -717 -946
-1271 -1161 -136 -52 -255 -85 -439 -120 -130 -25 -159 -27 -400 -27 -241 0
-270 2 -400 27 -185 35 -303 68 -441 121 -538 208 -992 617 -1249 1125 -27 52
-50 97 -51 99 -2 2 -29 -19 -61 -46 -72 -62 -151 -110 -209 -125 l-44 -12 0
-643 0 -643 2500 0 2500 0 0 2500 0 2500 -2500 0 -2500 0 0 -1430z m2750 1315
c532 -66 1017 -297 1414 -675 185 -176 377 -442 496 -685 73 -150 126 -283
117 -292 -16 -15 -37 12 -57 71 -32 98 -159 347 -237 466 -142 215 -315 404
-525 573 -335 269 -777 452 -1223 508 -55 7 -183 12 -285 12 -969 -1 -1830
-570 -2217 -1464 -23 -52 -46 -111 -53 -131 -8 -26 -17 -38 -31 -38 -17 0 -17
5 12 83 40 111 145 322 214 432 188 299 439 557 727 749 315 209 666 340 1048
390 145 19 447 20 600 1z m1144 -777 c89 -22 152 -89 188 -200 30 -91 36 -343
13 -533 -41 -350 -180 -921 -287 -1183 -27 -68 -48 -125 -45 -128 6 -7 246 15
302 27 28 7 67 20 87 30 46 24 64 24 73 2 20 -54 -163 -110 -370 -114 -131 -2
-127 0 -196 -123 -220 -396 -505 -702 -751 -803 -51 -21 -80 -26 -153 -27
-110 -1 -160 19 -239 94 -76 72 -101 131 -100 240 1 98 22 164 83 257 148 229
433 361 862 398 l77 7 60 141 c75 176 107 272 171 505 62 226 114 454 143 632
30 184 33 526 5 610 -34 101 -71 128 -150 109 -86 -20 -214 -79 -311 -141
-121 -79 -329 -290 -406 -411 -59 -93 -77 -108 -97 -81 -11 15 -9 25 13 63
152 265 473 532 733 611 126 39 197 43 295 18z"/>
<path d="M3260 1975 c-129 -18 -299 -61 -392 -101 -262 -109 -441 -368 -389
-560 29 -108 203 -95 387 29 178 119 365 336 499 581 43 77 52 72 -105 51z"/>
<path d="M1435 3447 c-54 -116 -147 -312 -206 -434 l-108 -223 77 0 c42 0 93
3 113 6 l37 6 21 112 c23 115 143 645 161 705 5 19 8 36 7 38 -2 1 -48 -93
-102 -210z"/>
<path d="M1285 2740 c-22 -5 -76 -11 -121 -15 l-80 -7 -87 -168 c-48 -92 -87
-169 -87 -172 0 -5 222 20 308 35 l65 12 27 163 c14 89 24 161 21 161 -3 -1
-24 -5 -46 -9z"/>
<path d="M647 2280 c-248 -42 -418 -92 -558 -164 l-84 -43 -3 -362 -2 -361 27
6 c53 12 128 59 192 120 l64 60 -26 70 c-32 82 -32 84 -9 84 13 0 23 -15 36
-52 11 -29 22 -57 26 -61 10 -11 114 123 217 278 77 115 263 426 263 439 0 9
-21 7 -143 -14z"/>
</g>
</svg>
